<?xml version="1.0" standalone="no"?>
<!DOCTYPE svg PUBLIC "-//W3C//DTD SVG 20010904//EN"
 "http://www.w3.org/TR/2001/REC-SVG-20010904/DTD/svg10.dtd">
<svg version="1.0" xmlns="http://www.w3.org/2000/svg"
 width="200.000000pt" height="200.000000pt" viewBox="0 0 200.000000 200.000000"
 preserveAspectRatio="xMidYMid meet">
<metadata>
Created by potrace 1.14, written by Peter Selinger 2001-2017
</metadata>
<g transform="translate(0.000000,200.000000) scale(0.100000,-0.100000)"
fill="#000000" stroke="none">
<path d="M117 1980 c-50 -25 -94 -75 -107 -122 -7 -24 -9 -329 -8 -880 l3
-843 22 -36 c13 -20 42 -49 65 -65 l41 -29 852 -3 c945 -3 890 -7 959 64 20
20 40 53 46 73 14 50 13 1673 0 1723 -14 48 -80 114 -127 127 -25 7 -319 11
-873 10 -799 0 -837 -1 -873 -19z"/>
</g>
</svg>
